<svg width="24" height="34" viewBox="0 0 24 34" fill="none" xmlns="http://www.w3.org/2000/svg">
<path d="M21.5 14.625H19.125V7.5C19.125 5.61033 18.3743 3.79806 17.0381 2.46186C15.7019 1.12567 13.8897 0.375 12 0.375C10.1103 0.375 8.29806 1.12567 6.96186 2.46186C5.62567 3.79806 4.875 5.61033 4.875 7.5V14.625H2.5C1.87011 14.625 1.26602 14.8752 0.820621 15.3206C0.375222 15.766 0.125 16.3701 0.125 17V31.25C0.125 31.8799 0.375222 32.484 0.820621 32.9294C1.26602 33.3748 1.87011 33.625 2.5 33.625H21.5C22.1299 33.625 22.734 33.3748 23.1794 32.9294C23.6248 32.484 23.875 31.8799 23.875 31.25V17C23.875 16.3701 23.6248 15.766 23.1794 15.3206C22.734 14.8752 22.1299 14.625 21.5 14.625ZM7.25 7.5C7.25 6.24022 7.75044 5.03204 8.64124 4.14124C9.53204 3.25044 10.7402 2.75 12 2.75C13.2598 2.75 14.468 3.25044 15.3588 4.14124C16.2496 5.03204 16.75 6.24022 16.75 7.5V14.625H7.25V7.5ZM21.5 31.25H2.5V17H21.5V31.25Z" fill="#1A2744"/>
</svg>
