<svg width="32" height="24" viewBox="0 0 32 24" fill="none" xmlns="http://www.w3.org/2000/svg">
<path d="M29.7143 0H2.28571C1.67951 0 1.09812 0.252856 0.66947 0.702944C0.240816 1.15303 0 1.76348 0 2.4V21.6C0 22.2365 0.240816 22.847 0.66947 23.2971C1.09812 23.7471 1.67951 24 2.28571 24H29.7143C30.3205 24 30.9019 23.7471 31.3305 23.2971C31.7592 22.847 32 22.2365 32 21.6V2.4C32 1.76348 31.7592 1.15303 31.3305 0.702944C30.9019 0.252856 30.3205 0 29.7143 0ZM27.2 2.4L16 10.536L4.8 2.4H27.2ZM2.28571 21.6V3.492L15.3486 12.984C15.5399 13.1234 15.7672 13.198 16 13.198C16.2328 13.198 16.4601 13.1234 16.6514 12.984L29.7143 3.492V21.6H2.28571Z" fill="#1A2744"/>
</svg>
