<svg width="38" height="38" viewBox="0 0 38 38" fill="none" xmlns="http://www.w3.org/2000/svg">
<path d="M19 9.5C17.8257 9.5 16.6777 9.84823 15.7013 10.5006C14.7249 11.1531 13.9639 12.0804 13.5145 13.1653C13.0651 14.2503 12.9475 15.4441 13.1766 16.5958C13.4057 17.7476 13.9712 18.8056 14.8016 19.6359C15.6319 20.4663 16.6899 21.0318 17.8417 21.2609C18.9934 21.49 20.1873 21.3724 21.2722 20.923C22.3571 20.4736 23.2844 19.7126 23.9369 18.7362C24.5893 17.7598 24.9375 16.6118 24.9375 15.4375C24.9375 13.8628 24.3119 12.3526 23.1985 11.2391C22.085 10.1256 20.5747 9.5 19 9.5ZM19 19C18.2954 19 17.6066 18.7911 17.0208 18.3996C16.4349 18.0082 15.9783 17.4518 15.7087 16.8008C15.439 16.1498 15.3685 15.4335 15.506 14.7425C15.6434 14.0514 15.9827 13.4167 16.4809 12.9184C16.9792 12.4202 17.6139 12.0809 18.305 11.9435C18.9961 11.806 19.7124 11.8765 20.3633 12.1462C21.0143 12.4158 21.5707 12.8724 21.9621 13.4583C22.3536 14.0441 22.5625 14.7329 22.5625 15.4375C22.5616 16.382 22.1859 17.2876 21.518 17.9555C20.8501 18.6234 19.9445 18.9991 19 19Z" fill="#1A2744"/>
<path d="M19 2.375C15.7119 2.375 12.4976 3.35004 9.76365 5.17682C7.02968 7.0036 4.89882 9.60007 3.64051 12.6379C2.3822 15.6757 2.05297 19.0184 2.69445 22.2434C3.33593 25.4683 4.91931 28.4306 7.24436 30.7556C9.5694 33.0807 12.5317 34.6641 15.7566 35.3056C18.9816 35.947 22.3243 35.6178 25.3621 34.3595C28.3999 33.1012 30.9964 30.9703 32.8232 28.2364C34.65 25.5024 35.625 22.2881 35.625 19C35.62 14.5923 33.8668 10.3666 30.7501 7.2499C27.6334 4.1332 23.4077 2.38003 19 2.375ZM11.875 31.3227V29.6875C11.876 28.743 12.2516 27.8374 12.9195 27.1695C13.5874 26.5016 14.493 26.1259 15.4375 26.125H22.5625C23.5071 26.1259 24.4126 26.5016 25.0805 27.1695C25.7484 27.8374 26.1241 28.743 26.125 29.6875V31.3227C23.9628 32.5852 21.5039 33.2506 19 33.2506C16.4961 33.2506 14.0372 32.5852 11.875 31.3227ZM28.4905 29.5996C28.4668 28.042 27.8322 26.556 26.7234 25.4619C25.6146 24.3677 24.1203 23.7529 22.5625 23.75H15.4375C13.8797 23.7529 12.3854 24.3677 11.2766 25.4619C10.1678 26.556 9.53317 28.042 9.50951 29.5996C7.35605 27.6768 5.83744 25.1452 5.15475 22.34C4.47206 19.5349 4.6575 16.5886 5.68652 13.8912C6.71553 11.1938 8.53958 8.8726 10.9171 7.23492C13.2947 5.59724 16.1136 4.72034 19.0006 4.72034C21.8876 4.72034 24.7065 5.59724 27.0841 7.23492C29.4616 8.8726 31.2857 11.1938 32.3147 13.8912C33.3437 16.5886 33.5291 19.5349 32.8465 22.34C32.1638 25.1452 30.644 27.6768 28.4905 29.5996Z" fill="#1A2744"/>
</svg>
