<svg xmlns="http://www.w3.org/2000/svg" xml:space="preserve" width="200px" version="1.1"
  style="shape-rendering:geometricPrecision; text-rendering:geometricPrecision; image-rendering:optimizeQuality; fill-rule:evenodd; clip-rule:evenodd"
  viewBox="0 0 38.57 38.83" xmlns:xlink="http://www.w3.org/1999/xlink"
  xmlns:xodm="http://www.corel.com/coreldraw/odm/2003">
  <defs>
    <style type="text/css">
      .fil0 {
        fill: #fff
      }
    </style>
  </defs>
  <g id="Layer_x0020_1">
    <metadata id="CorelCorpID_0Corel-Layer" />
    <g id="_1307524555152">
      <path class="fil0"
        d="M31.78 3.02c0.53,0.35 0.82,0.69 1.58,0.86 -0.08,0.98 -1.92,3.45 -2.47,4.28 -1.81,2.72 -3.89,5.3 -6.4,7.41 -3.21,2.7 -3.88,3.44 -8.19,5.61 -3.07,1.55 -7.43,2.69 -11.12,2.68 -1.98,-0 -5.18,-0.58 -5.18,1.73 0,1.43 2.03,1.87 3.31,1.87 3.73,0 8.29,-0.91 11.63,-2.03 3.11,-1.04 6.37,-2.95 8.93,-4.87 0.64,-0.48 1.21,-0.95 1.85,-1.46 2.97,-2.34 5.87,-6.17 8.09,-9.16 0.56,-0.76 2.36,-3.47 2.57,-4.34 0.41,0.21 1.66,0.82 2.16,0.86 0.16,-0.7 -0.37,-4.56 -0.62,-5.71 -0.07,-0.34 -0.15,-0.36 -0.25,-0.76 -1.12,0 -2.34,0.81 -3.21,1.25 -1.51,0.75 -2.19,0.84 -2.68,1.77z" />
      <path class="fil0"
        d="M9.92 8.92c0,-1.1 0.6,-2.31 1.19,-2.84 2.92,-2.64 7.15,-0.39 7.15,2.55l0 0.86c0,1.83 -1.95,3.74 -3.74,3.74l-1.01 0c-1.99,0 -3.59,-2.27 -3.59,-4.31zm0.58 -6.18c-0.24,0 -1.31,-0.87 -1.73,-1.15l-2.19 2.12c0.17,0.3 0.31,0.59 0.52,0.84 0.24,0.3 0.66,0.45 0.66,0.63 0,0.81 -0.4,1.26 -0.58,2.01 -0.58,0.14 -1.45,0.29 -2.16,0.29l0 3.16c0.3,0.01 1.8,0.22 1.98,0.33 0.2,0.11 0.14,0.06 0.29,0.29 0,0.01 0.19,0.37 0.19,0.38 0.72,1.53 -0.02,1.27 -0.87,2.89l1.98 2.05c0.57,-0.18 1.74,-1.19 1.76,-1.19 0.81,0 1.08,0.51 1.87,0.58 0.06,0.68 0.29,1.41 0.29,2.16 0.94,0.02 1.62,0.36 3.16,0 0.11,-0.49 0.29,-1.59 0.29,-2.16 1.46,-0.12 1.26,-1.2 2.62,-0.03 0.33,0.28 0.49,0.38 0.83,0.61l2.19 -2.12c-0.14,-0.19 -0.25,-0.37 -0.38,-0.55 -0.59,-0.78 -1.01,-0.87 -0.58,-1.84 0.35,-0.78 0.14,-1.34 2.51,-1.39 0,-2.37 0.7,-3.03 -0.65,-3.24 -0.92,-0.14 -0.4,0.04 -1.12,-0.17 -0.58,-0.18 -0.97,-1.59 -0.97,-1.62 0,-0.4 0.91,-1.52 1.15,-1.87l-2.05 -2.12c-0.81,0.39 -1.47,1.12 -1.84,1.12 -0.47,0 -1.1,-0.43 -1.73,-0.58 -0.01,-0.64 -0.24,-1.54 -0.29,-2.16l-3.16 0c0,0.4 -0.12,1.82 -0.26,2.04 -0.15,0.24 -1.34,0.69 -1.75,0.69z" />
      <path class="fil0"
        d="M27.61 20.13c0,2.13 -0.14,3.75 -0.14,5.9l0 7.19c0,2.05 0.14,3.57 0.14,5.61l5.03 0 0 -23.44c-0.51,0.13 -2.01,1.94 -2.42,2.47 -0.45,0.57 -0.78,0.7 -1.28,1.16 -0.44,0.41 -0.71,0.95 -1.33,1.12z" />
      <path class="fil0" d="M19.41 25.74l0 13.09 4.89 0 0.14 -15.82c-1.16,0.27 -3.23,2.31 -5.03,2.73z" />
      <path class="fil0"
        d="M11.22 29.19l0 9.63 4.6 0 0.02 0c0.32,-0 0.42,-0.11 0.42,-0.43l0 -10.93c-0.7,0 -3.05,0.77 -3.98,1.06 -0.48,0.15 -1.06,0.18 -1.06,0.67z" />
      <path class="fil0"
        d="M4.75 29.62c-1.09,0 -1.16,-0.13 -1.73,-0.14l0 9.35 4.89 0 0 -9.49c-2.04,0 -2.47,0.29 -3.16,0.29z" />
    </g>
  </g>
</svg>