<svg xmlns="http://www.w3.org/2000/svg" xml:space="preserve" width="100%" version="1.1"
  style="shape-rendering:geometricPrecision; text-rendering:geometricPrecision; image-rendering:optimizeQuality; fill-rule:evenodd; clip-rule:evenodd"
  viewBox="0 0 66.44 76.47" xmlns:xlink="http://www.w3.org/1999/xlink"
  xmlns:xodm="http://www.corel.com/coreldraw/odm/2003">
  <defs>
    <style type="text/css">
      .fil0 {
        fill: #fff
      }
    </style>
  </defs>
  <g id="Layer_x0020_1">
    <metadata id="CorelCorpID_0Corel-Layer" />
    <g id="_1307730170960">
      <path class="fil0"
        d="M44.59 4.66c0,3.87 1.16,6.17 4.19,8.52 1.5,1.17 1.54,0.96 1.54,3.3l-5.19 0.18 -0.18 3.76 -1.43 0.18c-0.27,1.14 -0.49,2.05 0.72,2.33 -0.19,0.7 -0.65,0.77 -1.93,1.65 -4.63,3.16 -7.15,2.65 -13.29,2.65 -4.79,0 -8.58,-2.7 -10.89,-6.12 -0.98,-1.45 -1.61,-2.65 -3.44,-2.65 -1.21,0 -1.61,1.29 -1.61,1.79 0,3.02 3.29,7.47 6.19,9.21 4.06,2.44 7.42,1.84 7.42,7.98l0 8.42 -5.19 0.18 -0.18 9.31c0,4.33 0.18,8.04 0.18,12.36l-1.79 0 0 -13.61 -19.7 0 0 22.21c18.22,0 35.87,0.18 54.08,0.18 4.32,0 8.03,-0.18 12.36,-0.18l0 -21.67c0,-0.72 -0.66,-0.56 -1.42,-0.55l-6.1 -0.17c-1.85,0 -7.14,-0.08 -8.64,0.13l-3.89 0.23 0 13.43 -1.97 0 0 -21.13c0,-0.41 -0.12,-0.54 -0.54,-0.54l-5.37 0 0 -9.13c0,-4.7 1.4,-4.02 6.05,-7.2 3.23,-2.2 3.51,-3.58 5.54,-5.92 0.09,-0.1 0.39,-0.48 0.4,-0.49 0.25,-0.25 -0.01,-0.35 0.54,-0.35l9.49 0 -0.18 -2.33c-2.06,0 -1.61,-0.71 -1.61,-4.12l-5.37 0c0,-4.38 0.61,-1.42 3.56,-5.39 2.81,-3.78 2.44,-6.83 1.45,-11.08l-12.85 0c-0.41,0.14 -0.5,0.69 -0.75,2.52 -0.11,0.77 -0.19,1.23 -0.19,2.14z" />
      <path class="fil0"
        d="M25.79 17.91c0,1.94 0.88,3.77 1.83,4.8 5.05,5.45 13.94,-1.04 10.86,-7.45 -0.44,-0.92 -0.72,-1.23 -1.45,-1.96 -4.16,-4.17 -11.24,-1.23 -11.24,4.61z" />
      <path class="fil0"
        d="M60.35 3.22c0,1 0.19,0.74 0.08,1.68 -0.47,4.07 -0.51,2.16 -1.16,4.94 3.1,-0.07 5.26,-4.01 5.01,-5.91l-0.21 -1.79 -3.73 -0 0 1.07z" />
      <path class="fil0"
        d="M39.4 3.94c0,3.12 2.95,5.75 4.84,5.91 -0.05,-0.58 -0.26,-1.09 -0.44,-1.71 -0.87,-2.97 -0.21,-4.15 -0.64,-5.99l-3.4 0c-0.13,0.58 -0.36,1.11 -0.36,1.79z" />
    </g>
  </g>
</svg>