<svg xmlns="http://www.w3.org/2000/svg" xml:space="preserve" width="200px" version="1.1"
  style="shape-rendering:geometricPrecision; text-rendering:geometricPrecision; image-rendering:optimizeQuality; fill-rule:evenodd; clip-rule:evenodd"
  viewBox="0 0 839.41 616.79" xmlns:xlink="http://www.w3.org/1999/xlink"
  xmlns:xodm="http://www.corel.com/coreldraw/odm/2003">
  <defs>
    <style type="text/css">
      .fil0 {
        fill: #ffffff
      }
    </style>
  </defs>
  <g id="Layer_x0020_1">
    <metadata id="CorelCorpID_0Corel-Layer" />
    <g id="_1306397634256">
      <path class="fil0"
        d="M538.31 37.81l0 42.01c0,2.36 -1.7,2.09 -3.85,2.45 -2.31,0.39 -4.17,0.62 -6.02,0.99 -24.54,4.86 -38.83,8.17 -62.17,17.66 -27.19,11.07 -51.83,27.49 -73.43,47.01 -5.01,4.53 -14.13,3.31 -23.29,3.31 -20.2,0 -154.64,-0.9 -160.1,0.26 -12.28,2.61 -14.22,23.84 -4.9,30.3 4.11,2.85 10.55,2.36 17.25,2.36l62.32 0.7c8.61,0 14.57,-0.7 23.11,-0.7 7.94,0 15.87,0 23.81,0 8.6,0 15.16,0.72 23.11,0.7l35.74 0.03c4.22,-0.05 6.23,-0.77 11.19,-0.72 9.58,0.1 10.75,-2.36 16.57,-7.23l9.48 -8.02c9.23,-8.22 20.6,-15.64 31.59,-21.63 10.82,-5.9 20.05,-10.7 32.27,-15.35 41.43,-15.76 88.07,-18.95 131.63,-8.98 36.1,8.26 67.91,24.18 95.87,47.68 1.67,1.41 2.16,1.62 3.81,3.19l7.69 7.01c1.79,1.8 2.33,1.98 4.19,3.52 1.67,1.38 1.98,1.99 3.3,3.71l10.04 11.66c9.28,10.41 16.39,21.76 23.57,33.85 13.22,22.28 27.63,61.01 28.41,86.43 0.59,19.22 2.43,34.37 -0.48,54.13 -2.62,17.8 -5.65,35.02 -12.11,51.61l-1.8 5.2c-1.09,2.07 -1.31,2.49 -2.22,4.79 -7.02,17.88 -17.39,34.35 -28.8,49.62 -6.14,8.22 -12.96,15.95 -20.23,23.18 -9.5,9.44 -19.66,18.4 -30.84,25.88 -32.39,21.67 -64.68,34.01 -103.57,39.28 -12.96,1.76 -23.97,1.86 -36.62,1.18 -22.23,-1.19 -43.52,-4.38 -64.34,-11.29 -22.66,-7.52 -57.54,-25.27 -74.83,-42.81 -4.86,-4.93 -13,-10.69 -16.99,-15.92l-10.32 -11.38c-4.86,-4.81 -5.71,-6.11 -13.87,-7.83 -6.15,-1.3 -14.7,-0.39 -21.32,-0.39 -7.9,-0 -13.11,0.7 -21.01,0.7l-108.54 0c-12.5,0.01 -33.42,-2.67 -45.1,0.42 -6.09,1.61 -9.52,8.06 -9.52,14.29 0,20 14.49,16.81 33.61,16.81 50.88,0 101.77,0 152.65,0l8.57 10.33c1.95,1.96 2.44,3.01 4.2,4.91 7.77,8.41 16.17,16.07 25.13,23.18 3.65,2.9 6.85,5.29 10.71,8.19 35.64,26.78 78.58,43.8 122.82,50.14 5.08,0.73 11.81,1.29 17.03,1.87 3.14,0.35 6.52,-0.12 9.66,0.14 22.32,1.84 46.92,-1.17 68.24,-6.06 28.82,-6.61 67.31,-21.29 92.05,-39.59 3.24,-2.39 6.16,-4.08 9.5,-6.6 3.5,-2.64 6.13,-4.66 9.35,-7.46 24.43,-21.29 44.61,-41.87 61.11,-70.53 21.26,-36.93 37.78,-83.52 37.78,-127.48 0,-43.04 -4.14,-75.36 -20.6,-114.54 -1.25,-2.98 -2.26,-5.43 -3.68,-8.23l-7.93 -15.88c-3.93,-7.63 -9.29,-14.81 -13.31,-22.4 5.05,-7.55 16.07,-14.33 21.01,-21.71 6.08,4.07 8.2,10.45 16.61,7.51 4.95,-1.73 7.2,-7.4 7.2,-12.41 0,-4.03 -7.07,-9.52 -9.63,-12.08 -3.91,-3.91 -7.3,-7.3 -11.2,-11.2 -2.03,-2.03 -3.6,-3.55 -5.62,-5.59 -2.14,-2.16 -2.97,-3.74 -5.23,-5.97 -4.3,-4.26 -8.47,-9.27 -15.24,-9.27 -4.25,0 -10.5,6.17 -10.5,10.5 0,5.95 5.36,9.11 7.7,12.6l-18.03 18.38c-3.24,-2.23 -26.84,-25.58 -33.24,-30.82 -17.84,-14.61 -38.48,-26.61 -59.76,-35.47 -7.82,-3.26 -14.93,-6.19 -23.14,-9.07 -10.35,-3.64 -26.89,-8.2 -38.19,-9.42 -3.62,-0.39 -12.49,-0.2 -12.49,-3.61l0 -42.01c5.78,0 13.81,-0.16 18.64,-3.76 14.02,-10.45 7.95,-34.05 -10.94,-34.05l-79.13 0c-3.3,0 -6.54,0.59 -9.04,1.47l-6.31 4.19c-2.13,2.22 -2.92,3.02 -4.03,6.47 -2.77,8.54 -0.18,17.81 6.79,22.17 4.57,2.86 10.85,3.51 18.2,3.51z" />
      <path class="fil0"
        d="M556.51 372.52c-5.8,-3.88 -27.73,-26.57 -35.55,-34.47 -2.06,-2.08 -2.74,-3.5 -4.88,-5.63l-30.19 -30.04c-16.61,-13.43 -33.72,-2.57 -33.72,15.52 0,9.3 14.82,21.47 22.58,29.23 8.39,8.39 66.77,67.69 72.53,71.72 13.72,9.59 23.66,-3.72 32.16,-12.2 8.09,-8.08 45.59,-46.34 52.1,-51.54 1.82,-1.45 3.26,-3.12 4.97,-4.83l56.72 -56.72c7.72,-7.72 15.93,-12.62 15.93,-24.68 0,-15.51 -17.98,-26.35 -31.33,-16.63l-8.69 7.41c-5.62,7.08 -69.09,69.67 -80.24,80.82 -4.84,4.84 -29.31,29.98 -32.39,32.04z" />
      <path class="fil0"
        d="M25.74 347.32l309.5 0c15.28,0 16.93,-22.6 7.85,-29.56 -3.12,-2.39 -9.5,-2.66 -14.85,-2.66l-313 0c-5.36,0 -10.57,2.34 -12.61,5.6 -4.28,6.84 -3.86,22.39 5.36,25.47 2.37,0.79 14.22,1.15 17.76,1.15z" />
      <path class="fil0"
        d="M120.27 418.04c0,9.69 4.92,16.11 14,16.11l199.57 0c12.18,0 14.7,-7.7 14.7,-17.51 0,-13.76 -10.07,-14.71 -23.81,-14.7 -12.8,0 -24.39,0.7 -37.81,0.7l-107.84 0c-8.79,0 -15.38,-0.7 -24.51,-0.7 -18.43,0 -34.31,-2.82 -34.31,16.11z" />
      <path class="fil0"
        d="M120.27 243.68c0,11.35 4.27,16.81 16.11,16.81l81.23 0c24.87,0 47.65,-0.7 72.12,-0.7 8.15,0 46.32,2.73 52.14,-1.08 6.32,-4.14 6.68,-8.54 6.68,-15.03 0,-19.42 -18.67,-14.7 -35.71,-14.7 -10.27,0 -18.07,-0.67 -28.01,-0.7 -5.55,-0.02 -8.23,0.74 -13.29,0.72l-57.44 -0.02c-19.04,0 -36.04,-0.7 -54.62,-0.7 -9.52,-0 -10.05,0.57 -19.69,0.29 -10.28,-0.3 -19.52,2.22 -19.52,15.11z" />
    </g>
  </g>
</svg>